<svg width="651" height="192" xmlns="http://www.w3.org/2000/svg" xmlns:xlink="http://www.w3.org/1999/xlink" xml:space="preserve" overflow="hidden"><defs><clipPath id="clip0"><rect x="664" y="1395" width="651" height="192"/></clipPath></defs><g clip-path="url(#clip0)" transform="translate(-664 -1395)"><path d="M1171.66 1398.34C1177.26 1395.79 1183.86 1393.5 1189.84 1396.24 1193.51 1398.27 1196.88 1401.87 1197.03 1406.3 1197.32 1411.82 1194.3 1416.81 1191.3 1421.21 1180.84 1434.34 1167.34 1444.61 1153.47 1453.89 1135.06 1465.55 1116.25 1476.86 1096.03 1485.13 1088.71 1488.39 1084.71 1495.74 1079.14 1501.1 1072.08 1509.14 1065.04 1517.16 1057.71 1524.94 1062.9 1523.56 1068.56 1524.63 1073.55 1522.39 1081.32 1518.56 1086.03 1510.89 1093.03 1506.03 1098.56 1502.24 1105.08 1499.29 1111.93 1499.74 1116.3 1499.99 1120.94 1503.27 1121.04 1507.97 1121.58 1513.35 1114.98 1517.46 1110.4 1514.59 1107.49 1513.5 1107.78 1509.99 1107.58 1507.48 1103.44 1510 1101.13 1514.44 1097.54 1517.6 1091.53 1523.06 1084.05 1527.44 1075.86 1528.29 1077.54 1529.49 1079.58 1530.81 1079.9 1533.04 1080.77 1537.8 1080.25 1543.27 1076.96 1547.05 1073.89 1550.81 1069.74 1553.54 1066.89 1557.51 1073.9 1558.1 1079.99 1554.11 1085.84 1550.86 1097.72 1543.4 1108.56 1534.38 1119.23 1525.3 1129.04 1516.82 1139.29 1508.84 1149.46 1500.81 1155.72 1500.24 1162.06 1500.83 1168.35 1500.54 1155.77 1512.63 1144.3 1525.79 1131.86 1538.02 1127.31 1542.85 1121.84 1547.04 1118.86 1553.14 1117.85 1554.37 1118.21 1555.98 1118.22 1557.45 1120.12 1557.55 1122.13 1558.01 1123.95 1557.19 1129.47 1555.1 1134.62 1552.1 1139.34 1548.55 1161.29 1532.56 1181.32 1514.12 1202.26 1496.87 1207.29 1493.97 1212.67 1491.68 1217.77 1488.91 1213.41 1488.86 1209.05 1488.89 1204.71 1488.86 1205.21 1486.37 1205.77 1483.89 1206.27 1481.4 1211.5 1481.41 1216.75 1481.37 1221.99 1481.44 1229.81 1472.39 1238.56 1464.22 1246.67 1455.46 1252.28 1455.03 1257.9 1455.4 1263.5 1454.96 1256.01 1464.06 1247.65 1472.4 1240 1481.37 1246.97 1481.43 1253.96 1481.38 1260.94 1481.4 1260.56 1483.89 1260.19 1486.39 1259.81 1488.88 1251.98 1488.88 1244.15 1488.86 1236.33 1488.89 1230.46 1495.07 1224.49 1501.12 1218.92 1507.58 1212.04 1513.99 1206.35 1521.53 1199.54 1528.01 1195.32 1532.15 1191.78 1536.91 1187.56 1541.04 1183.52 1544.98 1179.71 1549.18 1176.2 1553.59 1175.27 1554.97 1173.87 1556.96 1175.09 1558.57 1178.54 1560.27 1182.3 1558.3 1185.55 1557.02 1196.22 1551.52 1205.63 1543.97 1215.05 1536.6 1218.74 1533.97 1220.89 1529.84 1224.08 1526.69 1232.26 1518.86 1242.17 1513.14 1252.23 1508.1 1262.64 1503.58 1274.15 1499.1 1285.66 1501.67 1289.24 1503.55 1291.06 1507.12 1291.32 1511.1 1293.22 1507.8 1295.45 1504.64 1296.76 1501.03 1302.66 1500.12 1308.65 1500.81 1314.59 1500.6 1312.03 1504.06 1308.98 1507.08 1305.98 1510.13 1296.66 1520.76 1286.84 1530.92 1277.52 1541.54 1272.91 1546.1 1268.49 1551.5 1267.23 1558.05 1268.15 1558.36 1269.06 1558.69 1269.99 1559.03 1278.16 1555.85 1284.82 1549.98 1291.82 1544.86 1298.2 1539.76 1304.66 1534.74 1311.01 1529.59 1312.29 1531.04 1313.63 1532.44 1315 1533.83 1304.1 1542.96 1293.84 1552.95 1282.07 1560.97 1276.39 1564.38 1269.02 1568.5 1262.63 1564.41 1258.27 1560.16 1257.36 1553.1 1259.89 1547.64 1250.21 1554.42 1240.95 1562.58 1229.29 1565.73 1225.43 1566.79 1221.11 1565.92 1218.12 1563.24 1213.9 1558.48 1212.77 1551.85 1213.66 1545.69 1204.73 1552.7 1195.83 1560.01 1185.43 1564.74 1181.39 1566.45 1176.64 1568.05 1172.39 1566.12 1167.98 1563.82 1164.74 1559.11 1164.73 1554.04 1164.69 1545.38 1169.86 1537.94 1175.16 1531.55 1180.34 1526.13 1185.49 1520.68 1190.55 1515.14 1182.22 1522.08 1173.64 1528.7 1165.32 1535.66 1156.74 1543.4 1147.86 1550.88 1138.27 1557.37 1134.21 1560.16 1129.8 1562.42 1125.24 1564.25 1121.45 1565.7 1116.87 1565.67 1113.41 1563.38 1110.91 1561.38 1109.04 1558.36 1108.99 1555.09 1108.48 1547.97 1111.95 1541.33 1116.24 1535.9 1106.05 1543.73 1096.95 1553.08 1085.8 1559.62 1079.57 1562.99 1072.65 1566.49 1065.35 1565.09 1059.81 1564.05 1057.17 1558.2 1056.49 1553.16 1055.77 1549.75 1056.92 1546.36 1058.68 1543.49 1061.3 1538.69 1066.39 1536.05 1069.43 1531.57 1063.18 1530.7 1056.92 1531.77 1050.74 1532.67 1041.63 1543.49 1031.88 1553.74 1022.63 1564.45 1016.48 1564.45 1010.34 1564.5 1004.19 1564.42 1012.71 1555.36 1020.57 1545.69 1028.91 1536.46 1039.15 1524.74 1049.46 1513.07 1059.65 1501.29 1048.67 1509.58 1038.44 1518.8 1027.58 1527.24 1011.79 1539.5 997.331 1554.08 978.665 1561.99 971.312 1564.92 962.865 1567.23 955.143 1564.31 949.383 1562.01 945.95 1555.47 947.462 1549.37 938.995 1556.27 928.936 1561.02 918.598 1564.37 912.667 1566.08 906.071 1567.09 900.171 1564.74 895.335 1562.59 893.017 1557.11 893.046 1552.05 892.619 1545.42 895.206 1539.1 898.668 1533.61 906.926 1522.38 919.244 1515.1 931.353 1508.71 937.144 1505.72 943.273 1503.27 949.681 1502.02 953.552 1501.47 958.347 1501.38 961.153 1504.62 964.029 1507.61 963.083 1512.41 961.094 1515.62 956.994 1520.88 951.561 1525.01 945.492 1527.71 936.199 1532.79 925.901 1535.8 915.434 1537.18 911.215 1541.79 906.429 1545.97 903.185 1551.39 901.275 1554.07 902.389 1557.26 904.946 1559 909.971 1559.54 914.946 1558.24 919.613 1556.49 940.617 1548.56 957.651 1533.36 974.804 1519.34 988.784 1507.64 1002.94 1496.15 1016.74 1484.23 1017.95 1485.95 1019.11 1487.68 1020.24 1489.45 1017.34 1492 1014.35 1494.52 1012 1497.61 1009.37 1501.45 1010.78 1506.29 1011.26 1510.55 1012.36 1518.99 1013.98 1528.3 1009.35 1536.02 1010.95 1534.21 1012.4 1532.23 1014.24 1530.63 1025.57 1522.13 1036.56 1513.17 1047.79 1504.52 1051.09 1501.9 1053.52 1498.38 1056.8 1495.76 1061.43 1491.96 1066.26 1488.39 1071.53 1485.54 1076.75 1483 1079.96 1477.92 1084.45 1474.41 1104.9 1454.68 1124.38 1433.85 1146.29 1415.7 1154.31 1409.33 1162.41 1402.86 1171.66 1398.34M1176.59 1404.32C1165.14 1411.03 1155.71 1420.53 1146.11 1429.57 1140.64 1434.4 1135.66 1439.75 1130.51 1444.91 1124.68 1451.7 1117.98 1457.69 1112.32 1464.62 1108.91 1468.47 1105.05 1471.89 1101.81 1475.89 1113.27 1469.09 1124.93 1462.63 1136.15 1455.45 1153.65 1444.61 1171.22 1433.06 1184.47 1417.03 1186.69 1413.92 1188.87 1410.43 1188.76 1406.46 1188.45 1404.87 1187.05 1403.86 1186.17 1402.62 1182.89 1402.12 1179.43 1402.52 1176.59 1404.32M990.067 1512.56C979.292 1522.04 968.486 1531.47 958.019 1541.29 962.805 1541.11 966.646 1546.36 965.103 1550.88 964.158 1554.95 960.258 1557.42 956.357 1558.05 959.681 1558.16 963.103 1558.68 966.337 1557.66 973.003 1555.83 978.038 1550.77 982.744 1545.99 991.669 1537.16 998.405 1525.89 1000.86 1513.49 1001.73 1509.01 1001.5 1504.23 1003.66 1500.09 999.53 1504.67 994.475 1508.27 990.067 1512.56M1258.28 1518.18C1251.57 1523.01 1245.57 1528.72 1239.58 1534.39 1235.55 1537.64 1232.45 1541.82 1228.91 1545.57 1226.2 1549.17 1222.81 1553.13 1223.21 1557.95 1225.77 1559.03 1228.56 1558.69 1231.04 1557.56 1244.49 1551.74 1255.73 1542.05 1266.69 1532.54 1272.97 1526.59 1280.79 1520.92 1282.98 1512.08 1284.06 1509.48 1281.39 1507.86 1279.12 1508.18 1271.17 1508.78 1264.53 1513.68 1258.28 1518.18M944.607 1512.86C936.139 1518.44 928.597 1525.44 919.414 1529.92 928.478 1527.11 937.811 1524.39 945.681 1518.9 949.373 1516.19 953.293 1513.32 955.104 1508.94 951.372 1509.46 947.731 1510.71 944.607 1512.86Z" fill-rule="evenodd"/><path d="M1171.32 1479.06C1169.18 1471.42 1178.14 1463.4 1185.46 1466.81 1189.14 1469.02 1191.23 1474.27 1189.22 1478.29 1186.81 1483.25 1180.84 1486.18 1175.47 1484.54 1173.9 1482.9 1171.87 1481.39 1171.32 1479.06Z" fill-rule="evenodd"/><path d="M691 1577C707.54 1537.87 696.644 1427.3 713.652 1406.87 730.66 1386.44 767.685 1453.43 793.048 1454.42 818.41 1455.41 852.594 1396.97 865.827 1412.82 879.06 1428.66 897.806 1433.62 872.443 1549.51" fill-rule="evenodd"/><path d="M0 32.5C-4.13768e-15 14.5507 14.5507-4.13768e-15 32.5-8.27536e-15 50.4492-1.65507e-14 65 14.5507 65 32.5 65 50.4492 50.4492 65 32.5 65 14.5507 65-2.06884e-14 50.4492 0 32.5Z" fill-rule="evenodd" transform="matrix(1 0 0 -1 664 1587)"/><path d="M0 32.5C-4.13768e-15 14.5507 14.5507-4.13768e-15 32.5-8.27536e-15 50.4492-1.65507e-14 65 14.5507 65 32.5 65 50.4492 50.4492 65 32.5 65 14.5507 65-2.06884e-14 50.4492 0 32.5Z" fill-rule="evenodd" transform="matrix(1 0 0 -1 833 1580)"/></g></svg>