<svg width="220" height="220" xmlns="http://www.w3.org/2000/svg" xmlns:xlink="http://www.w3.org/1999/xlink" xml:space="preserve" overflow="hidden"><defs><clipPath id="clip0"><rect x="2707" y="1015" width="220" height="220"/></clipPath><linearGradient x1="2747.47" y1="1035.53" x2="2899.53" y2="1205.47" gradientUnits="userSpaceOnUse" spreadMethod="reflect" id="fill1"><stop offset="0" stop-color="#00B0F0"/><stop offset="0.16" stop-color="#0070C0"/><stop offset="0.36" stop-color="#7030A0"/><stop offset="1" stop-color="#FF0066"/></linearGradient><linearGradient x1="0.000180447" y1="-0.000180446" x2="56.9999" y2="56.9999" gradientUnits="userSpaceOnUse" spreadMethod="reflect" id="fill2"><stop offset="0" stop-color="#00B0F0"/><stop offset="0.16" stop-color="#0070C0"/><stop offset="0.36" stop-color="#7030A0"/><stop offset="1" stop-color="#FF0066"/></linearGradient><linearGradient x1="0" y1="0" x2="57.0001" y2="57.0001" gradientUnits="userSpaceOnUse" spreadMethod="reflect" id="fill3"><stop offset="0" stop-color="#00B0F0"/><stop offset="0.16" stop-color="#0070C0"/><stop offset="0.36" stop-color="#7030A0"/><stop offset="1" stop-color="#FF0066"/></linearGradient></defs><g clip-path="url(#clip0)" transform="translate(-2707 -1015)"><rect x="2707" y="1015" width="220" height="220" fill="#FFFFFF" fill-opacity="0"/><path d="M2738 1197C2752.58 1162.6 2742.97 1065.37 2757.97 1047.41 2772.96 1029.44 2805.59 1088.34 2827.95 1089.21 2850.3 1090.08 2880.44 1038.7 2892.1 1052.63 2903.76 1066.57 2920.29 1070.92 2897.93 1172.83" fill="url(#fill1)" fill-rule="evenodd"/><path d="M0 28.4999C-3.62843e-15 12.7598 12.7599-3.62841e-15 28.5-7.25682e-15 44.2402-1.45136e-14 57.0001 12.7598 57.0001 28.4999 57.0001 44.2399 44.2402 56.9997 28.5 56.9997 12.7599 56.9997-1.81422e-14 44.2399 0 28.4999Z" fill="url(#fill2)" fill-rule="evenodd" transform="matrix(1 0 0 -1 2715 1206)"/><path d="M0 28.5C-3.62843e-15 12.7599 12.7599-3.62843e-15 28.5-7.25687e-15 44.2402-1.45137e-14 57.0001 12.7599 57.0001 28.5 57.0001 44.2402 44.2402 57.0001 28.5 57.0001 12.7599 57.0001-1.81422e-14 44.2402 0 28.5Z" fill="url(#fill3)" fill-rule="evenodd" transform="matrix(1 0 0 -1 2863 1200)"/></g></svg>