<svg width="650" height="192" xmlns="http://www.w3.org/2000/svg" xmlns:xlink="http://www.w3.org/1999/xlink" xml:space="preserve" overflow="hidden"><defs><linearGradient x1="1406.88" y1="1083.5" x2="1527.12" y2="1378.5" gradientUnits="userSpaceOnUse" spreadMethod="reflect" id="fill0"><stop offset="0" stop-color="#00B0F0"/><stop offset="0.16" stop-color="#0070C0"/><stop offset="0.36" stop-color="#7030A0"/><stop offset="1" stop-color="#FF0066"/></linearGradient><linearGradient x1="1406.88" y1="1083.5" x2="1527.12" y2="1378.5" gradientUnits="userSpaceOnUse" spreadMethod="reflect" id="fill1"><stop offset="0" stop-color="#00B0F0"/><stop offset="0.16" stop-color="#0070C0"/><stop offset="0.36" stop-color="#7030A0"/><stop offset="1" stop-color="#FF0066"/></linearGradient><linearGradient x1="1063.96" y1="1143.01" x2="1238.04" y2="1335.99" gradientUnits="userSpaceOnUse" spreadMethod="reflect" id="fill2"><stop offset="0" stop-color="#00B0F0"/><stop offset="0.16" stop-color="#0070C0"/><stop offset="0.36" stop-color="#7030A0"/><stop offset="1" stop-color="#FF0066"/></linearGradient><linearGradient x1="-0.49611" y1="0.503862" x2="64.496" y2="64.4961" gradientUnits="userSpaceOnUse" spreadMethod="reflect" id="fill3"><stop offset="0" stop-color="#00B0F0"/><stop offset="0.16" stop-color="#0070C0"/><stop offset="0.36" stop-color="#7030A0"/><stop offset="1" stop-color="#FF0066"/></linearGradient><linearGradient x1="-5.25168e-15" y1="-5.25168e-15" x2="65" y2="65" gradientUnits="userSpaceOnUse" spreadMethod="reflect" id="fill4"><stop offset="0" stop-color="#00B0F0"/><stop offset="0.16" stop-color="#0070C0"/><stop offset="0.36" stop-color="#7030A0"/><stop offset="1" stop-color="#FF0066"/></linearGradient></defs><g transform="translate(-1028 -1145)"><path d="M1534.66 1148.34C1540.26 1145.79 1546.86 1143.5 1552.84 1146.24 1556.51 1148.27 1559.88 1151.87 1560.03 1156.3 1560.32 1161.82 1557.3 1166.81 1554.3 1171.21 1543.84 1184.34 1530.34 1194.61 1516.47 1203.89 1498.06 1215.55 1479.25 1226.86 1459.03 1235.13 1451.71 1238.39 1447.71 1245.74 1442.14 1251.1 1435.08 1259.13 1428.04 1267.16 1420.71 1274.94 1425.9 1273.56 1431.56 1274.63 1436.55 1272.39 1444.32 1268.56 1449.03 1260.89 1456.03 1256.03 1461.56 1252.24 1468.08 1249.29 1474.93 1249.74 1479.3 1249.99 1483.94 1253.27 1484.04 1257.97 1484.58 1263.35 1477.98 1267.46 1473.4 1264.59 1470.49 1263.5 1470.78 1259.99 1470.58 1257.48 1466.44 1260 1464.13 1264.44 1460.54 1267.6 1454.53 1273.06 1447.05 1277.44 1438.86 1278.29 1440.54 1279.49 1442.58 1280.81 1442.9 1283.04 1443.77 1287.8 1443.25 1293.27 1439.96 1297.05 1436.89 1300.81 1432.74 1303.54 1429.89 1307.51 1436.9 1308.09 1442.99 1304.11 1448.84 1300.86 1460.72 1293.4 1471.56 1284.38 1482.23 1275.3 1492.04 1266.82 1502.29 1258.84 1512.46 1250.81 1518.72 1250.24 1525.06 1250.83 1531.35 1250.54 1518.77 1262.63 1507.3 1275.79 1494.86 1288.02 1490.31 1292.85 1484.84 1297.04 1481.86 1303.14 1480.85 1304.37 1481.21 1305.98 1481.22 1307.45 1483.12 1307.55 1485.13 1308.01 1486.95 1307.19 1492.47 1305.1 1497.62 1302.1 1502.34 1298.55 1524.29 1282.56 1544.32 1264.12 1565.26 1246.87 1570.29 1243.97 1575.67 1241.68 1580.77 1238.91 1576.41 1238.86 1572.05 1238.89 1567.71 1238.86 1568.21 1236.37 1568.77 1233.89 1569.27 1231.4 1574.5 1231.41 1579.75 1231.37 1584.99 1231.44 1592.81 1222.39 1601.56 1214.22 1609.67 1205.46 1615.28 1205.03 1620.9 1205.4 1626.5 1204.96 1619.01 1214.06 1610.65 1222.4 1603 1231.37 1609.97 1231.43 1616.96 1231.38 1623.94 1231.4 1623.56 1233.89 1623.19 1236.39 1622.81 1238.88 1614.98 1238.88 1607.15 1238.86 1599.33 1238.89 1593.46 1245.07 1587.49 1251.12 1581.92 1257.58 1575.04 1263.99 1569.35 1271.53 1562.54 1278.01 1558.32 1282.15 1554.78 1286.91 1550.56 1291.04 1546.52 1294.98 1542.71 1299.17 1539.2 1303.59 1538.27 1304.97 1536.87 1306.96 1538.09 1308.57 1541.54 1310.27 1545.3 1308.3 1548.55 1307.02 1559.22 1301.52 1568.63 1293.97 1578.05 1286.6 1581.74 1283.97 1583.89 1279.84 1587.08 1276.69 1595.26 1268.86 1605.17 1263.14 1615.23 1258.1 1625.64 1253.58 1637.15 1249.1 1648.66 1251.67 1652.24 1253.55 1654.06 1257.12 1654.32 1261.1 1656.22 1257.8 1658.45 1254.64 1659.76 1251.03 1665.66 1250.12 1671.65 1250.81 1677.59 1250.6 1675.03 1254.06 1671.98 1257.08 1668.98 1260.13 1659.66 1270.76 1649.84 1280.92 1640.52 1291.54 1635.91 1296.1 1631.49 1301.5 1630.23 1308.05 1631.15 1308.36 1632.06 1308.69 1632.99 1309.03 1641.16 1305.85 1647.82 1299.98 1654.82 1294.86 1661.2 1289.76 1667.66 1284.74 1674.01 1279.59 1675.29 1281.04 1676.63 1282.44 1678 1283.83 1667.1 1292.96 1656.84 1302.95 1645.07 1310.97 1639.39 1314.38 1632.02 1318.5 1625.63 1314.41 1621.27 1310.16 1620.36 1303.1 1622.89 1297.64 1613.21 1304.42 1603.95 1312.57 1592.29 1315.73 1588.43 1316.79 1584.11 1315.92 1581.12 1313.24 1576.9 1308.48 1575.77 1301.85 1576.66 1295.69 1567.73 1302.7 1558.83 1310.01 1548.43 1314.74 1544.39 1316.45 1539.64 1318.05 1535.39 1316.12 1530.98 1313.82 1527.74 1309.11 1527.73 1304.04 1527.69 1295.38 1532.86 1287.94 1538.16 1281.55 1543.34 1276.13 1548.49 1270.68 1553.55 1265.14 1545.22 1272.08 1536.64 1278.7 1528.32 1285.66 1519.74 1293.4 1510.86 1300.88 1501.27 1307.37 1497.21 1310.16 1492.8 1312.42 1488.24 1314.25 1484.45 1315.7 1479.87 1315.67 1476.41 1313.38 1473.91 1311.38 1472.04 1308.36 1471.99 1305.09 1471.48 1297.97 1474.95 1291.33 1479.24 1285.9 1469.05 1293.73 1459.95 1303.08 1448.8 1309.62 1442.57 1312.99 1435.65 1316.49 1428.35 1315.09 1422.81 1314.05 1420.17 1308.2 1419.49 1303.16 1418.77 1299.75 1419.92 1296.36 1421.68 1293.49 1424.3 1288.69 1429.39 1286.05 1432.43 1281.57 1426.18 1280.7 1419.92 1281.77 1413.74 1282.67 1404.63 1293.49 1394.88 1303.74 1385.63 1314.45 1379.48 1314.45 1373.34 1314.5 1367.19 1314.42 1375.71 1305.36 1383.57 1295.69 1391.91 1286.46 1402.15 1274.74 1412.46 1263.07 1422.65 1251.29 1411.67 1259.58 1401.44 1268.8 1390.58 1277.24 1374.79 1289.5 1360.33 1304.08 1341.67 1311.99 1334.31 1314.92 1325.86 1317.23 1318.14 1314.31 1312.38 1312.01 1308.95 1305.47 1310.46 1299.37 1301.99 1306.27 1291.94 1311.02 1281.6 1314.37 1275.67 1316.08 1269.07 1317.09 1263.17 1314.74 1258.33 1312.58 1256.02 1307.11 1256.05 1302.05 1255.62 1295.42 1258.21 1289.1 1261.67 1283.61 1269.93 1272.38 1282.24 1265.1 1294.35 1258.71 1300.14 1255.72 1306.27 1253.27 1312.68 1252.02 1316.55 1251.47 1321.35 1251.38 1324.15 1254.61 1327.03 1257.61 1326.08 1262.41 1324.09 1265.62 1319.99 1270.88 1314.56 1275.01 1308.49 1277.71 1299.2 1282.79 1288.9 1285.79 1278.43 1287.18 1274.21 1291.79 1269.43 1295.97 1266.19 1301.39 1264.28 1304.07 1265.39 1307.26 1267.95 1309 1272.97 1309.54 1277.95 1308.24 1282.61 1306.49 1303.62 1298.56 1320.65 1283.36 1337.8 1269.34 1351.78 1257.64 1365.94 1246.15 1379.74 1234.23 1380.95 1235.95 1382.11 1237.68 1383.24 1239.45 1380.34 1242 1377.35 1244.52 1375 1247.61 1372.37 1251.45 1373.78 1256.29 1374.26 1260.55 1375.36 1268.99 1376.98 1278.3 1372.35 1286.02 1373.95 1284.21 1375.4 1282.23 1377.24 1280.63 1388.57 1272.13 1399.56 1263.17 1410.79 1254.52 1414.09 1251.9 1416.52 1248.38 1419.8 1245.75 1424.43 1241.96 1429.26 1238.39 1434.53 1235.54 1439.75 1233 1442.96 1227.92 1447.45 1224.41 1467.9 1204.68 1487.38 1183.85 1509.29 1165.7 1517.31 1159.33 1525.41 1152.86 1534.66 1148.34M1539.59 1154.32C1528.14 1161.03 1518.71 1170.53 1509.11 1179.57 1503.64 1184.4 1498.66 1189.75 1493.51 1194.91 1487.68 1201.7 1480.98 1207.69 1475.32 1214.62 1471.91 1218.47 1468.05 1221.89 1464.81 1225.89 1476.27 1219.09 1487.93 1212.63 1499.15 1205.45 1516.65 1194.61 1534.22 1183.06 1547.47 1167.03 1549.69 1163.92 1551.87 1160.43 1551.76 1156.46 1551.45 1154.87 1550.05 1153.86 1549.17 1152.62 1545.89 1152.13 1542.43 1152.52 1539.59 1154.32M1353.07 1262.56C1342.29 1272.04 1331.49 1281.47 1321.02 1291.29 1325.8 1291.11 1329.65 1296.36 1328.1 1300.88 1327.16 1304.95 1323.26 1307.42 1319.36 1308.05 1322.68 1308.15 1326.1 1308.68 1329.34 1307.66 1336 1305.83 1341.04 1300.77 1345.74 1295.99 1354.67 1287.16 1361.41 1275.89 1363.86 1263.49 1364.73 1259.01 1364.5 1254.23 1366.66 1250.09 1362.53 1254.67 1357.48 1258.27 1353.07 1262.56M1621.28 1268.18C1614.57 1273.01 1608.57 1278.72 1602.58 1284.39 1598.55 1287.64 1595.45 1291.82 1591.91 1295.57 1589.2 1299.16 1585.81 1303.13 1586.21 1307.95 1588.77 1309.03 1591.56 1308.69 1594.04 1307.56 1607.49 1301.74 1618.73 1292.05 1629.69 1282.54 1635.97 1276.59 1643.79 1270.92 1645.98 1262.08 1647.06 1259.48 1644.39 1257.86 1642.12 1258.18 1634.17 1258.78 1627.53 1263.68 1621.28 1268.18M1307.61 1262.86C1299.14 1268.44 1291.6 1275.44 1282.41 1279.92 1291.48 1277.11 1300.81 1274.39 1308.68 1268.9 1312.37 1266.19 1316.29 1263.32 1318.1 1258.94 1314.37 1259.46 1310.73 1260.71 1307.61 1262.86Z" fill="url(#fill0)" fill-rule="evenodd"/><path d="M1534.32 1229.06C1532.18 1221.42 1541.14 1213.4 1548.46 1216.81 1552.14 1219.02 1554.23 1224.27 1552.22 1228.29 1549.81 1233.25 1543.84 1236.18 1538.47 1234.54 1536.9 1232.9 1534.87 1231.39 1534.32 1229.06Z" fill="url(#fill1)" fill-rule="evenodd"/><path d="M1054 1327C1070.54 1287.65 1059.64 1176.44 1076.65 1155.9 1093.66 1135.35 1130.69 1202.72 1156.05 1203.71 1181.41 1204.71 1215.59 1145.93 1228.83 1161.87 1242.06 1177.81 1260.81 1182.79 1235.44 1299.35" fill="url(#fill2)" fill-rule="evenodd"/><path d="M0 32.5C-4.07402e-15 14.5507 14.3269-4.13768e-15 32-8.27536e-15 49.6731-1.65507e-14 63.9999 14.5507 63.9999 32.5 63.9999 50.4492 49.6731 65 32 65 14.3269 65-2.03701e-14 50.4492 0 32.5Z" fill="url(#fill3)" fill-rule="evenodd" transform="matrix(1 0 0 -1 1028 1337)"/><path d="M0 32.5C-4.13768e-15 14.5507 14.5507-4.13768e-15 32.5-8.27536e-15 50.4492-1.65507e-14 65 14.5507 65 32.5 65 50.4492 50.4492 65 32.5 65 14.5507 65-2.06884e-14 50.4492 0 32.5Z" fill="url(#fill4)" fill-rule="evenodd" transform="matrix(1 0 0 -1 1196 1330)"/></g></svg>