<svg width="650" height="192" xmlns="http://www.w3.org/2000/svg" xmlns:xlink="http://www.w3.org/1999/xlink" xml:space="preserve" overflow="hidden"><defs><clipPath id="clip0"><rect x="1420" y="1395" width="650" height="192"/></clipPath></defs><g clip-path="url(#clip0)" transform="translate(-1420 -1395)"><path d="M1926.66 1398.34C1932.26 1395.79 1938.86 1393.5 1944.84 1396.24 1948.51 1398.27 1951.88 1401.87 1952.03 1406.3 1952.32 1411.82 1949.3 1416.81 1946.3 1421.21 1935.84 1434.34 1922.34 1444.61 1908.47 1453.89 1890.06 1465.55 1871.25 1476.86 1851.03 1485.13 1843.71 1488.39 1839.71 1495.74 1834.14 1501.1 1827.08 1509.14 1820.04 1517.16 1812.71 1524.94 1817.9 1523.56 1823.56 1524.63 1828.55 1522.39 1836.32 1518.56 1841.03 1510.89 1848.03 1506.03 1853.56 1502.24 1860.08 1499.29 1866.93 1499.74 1871.3 1499.99 1875.94 1503.27 1876.04 1507.97 1876.58 1513.35 1869.98 1517.46 1865.4 1514.59 1862.49 1513.5 1862.78 1509.99 1862.58 1507.48 1858.44 1510 1856.13 1514.44 1852.54 1517.6 1846.53 1523.06 1839.05 1527.44 1830.86 1528.29 1832.54 1529.49 1834.58 1530.81 1834.9 1533.04 1835.77 1537.8 1835.25 1543.27 1831.96 1547.05 1828.89 1550.81 1824.74 1553.54 1821.89 1557.51 1828.9 1558.1 1834.99 1554.11 1840.84 1550.86 1852.72 1543.4 1863.56 1534.38 1874.23 1525.3 1884.04 1516.82 1894.29 1508.84 1904.46 1500.81 1910.72 1500.24 1917.06 1500.83 1923.35 1500.54 1910.77 1512.63 1899.3 1525.79 1886.86 1538.02 1882.31 1542.85 1876.84 1547.04 1873.86 1553.14 1872.85 1554.37 1873.21 1555.98 1873.22 1557.45 1875.12 1557.55 1877.13 1558.01 1878.95 1557.19 1884.47 1555.1 1889.62 1552.1 1894.34 1548.55 1916.29 1532.56 1936.32 1514.12 1957.26 1496.87 1962.29 1493.97 1967.67 1491.68 1972.77 1488.91 1968.41 1488.86 1964.05 1488.89 1959.71 1488.86 1960.21 1486.37 1960.77 1483.89 1961.27 1481.4 1966.5 1481.41 1971.75 1481.37 1976.99 1481.44 1984.81 1472.39 1993.56 1464.22 2001.67 1455.46 2007.28 1455.03 2012.9 1455.4 2018.5 1454.96 2011.01 1464.06 2002.65 1472.4 1995 1481.37 2001.97 1481.43 2008.96 1481.38 2015.94 1481.4 2015.56 1483.89 2015.19 1486.39 2014.81 1488.88 2006.98 1488.88 1999.15 1488.86 1991.33 1488.89 1985.46 1495.07 1979.49 1501.12 1973.92 1507.58 1967.04 1513.99 1961.35 1521.53 1954.54 1528.01 1950.32 1532.15 1946.78 1536.91 1942.56 1541.04 1938.52 1544.98 1934.71 1549.18 1931.2 1553.59 1930.27 1554.97 1928.87 1556.96 1930.09 1558.57 1933.54 1560.27 1937.3 1558.3 1940.55 1557.02 1951.22 1551.52 1960.63 1543.97 1970.05 1536.6 1973.74 1533.97 1975.89 1529.84 1979.08 1526.69 1987.26 1518.86 1997.17 1513.14 2007.23 1508.1 2017.64 1503.58 2029.15 1499.1 2040.66 1501.67 2044.24 1503.55 2046.06 1507.12 2046.32 1511.1 2048.22 1507.8 2050.45 1504.64 2051.76 1501.03 2057.66 1500.12 2063.65 1500.81 2069.59 1500.6 2067.04 1504.06 2063.98 1507.08 2060.98 1510.13 2051.66 1520.76 2041.84 1530.92 2032.52 1541.54 2027.91 1546.1 2023.49 1551.5 2022.23 1558.05 2023.15 1558.36 2024.06 1558.69 2024.99 1559.03 2033.16 1555.85 2039.82 1549.98 2046.82 1544.86 2053.2 1539.76 2059.66 1534.74 2066.01 1529.59 2067.29 1531.04 2068.63 1532.44 2070 1533.83 2059.1 1542.96 2048.84 1552.95 2037.07 1560.97 2031.39 1564.38 2024.02 1568.5 2017.63 1564.41 2013.27 1560.16 2012.36 1553.1 2014.89 1547.64 2005.21 1554.42 1995.95 1562.58 1984.29 1565.73 1980.43 1566.79 1976.11 1565.92 1973.12 1563.24 1968.9 1558.48 1967.77 1551.85 1968.66 1545.69 1959.73 1552.7 1950.83 1560.01 1940.43 1564.74 1936.39 1566.45 1931.64 1568.05 1927.39 1566.12 1922.98 1563.82 1919.74 1559.11 1919.73 1554.04 1919.69 1545.38 1924.86 1537.94 1930.16 1531.55 1935.34 1526.13 1940.49 1520.68 1945.55 1515.14 1937.22 1522.08 1928.64 1528.7 1920.32 1535.66 1911.74 1543.4 1902.86 1550.88 1893.27 1557.37 1889.21 1560.16 1884.8 1562.42 1880.24 1564.25 1876.45 1565.7 1871.87 1565.67 1868.41 1563.38 1865.91 1561.38 1864.04 1558.36 1863.99 1555.09 1863.48 1547.97 1866.95 1541.33 1871.24 1535.9 1861.05 1543.73 1851.95 1553.08 1840.8 1559.62 1834.57 1562.99 1827.65 1566.49 1820.35 1565.09 1814.81 1564.05 1812.17 1558.2 1811.49 1553.16 1810.77 1549.75 1811.92 1546.36 1813.68 1543.49 1816.3 1538.69 1821.39 1536.05 1824.43 1531.57 1818.18 1530.7 1811.92 1531.77 1805.74 1532.67 1796.63 1543.49 1786.88 1553.74 1777.63 1564.45 1771.48 1564.45 1765.34 1564.5 1759.19 1564.42 1767.71 1555.36 1775.57 1545.69 1783.91 1536.46 1794.15 1524.74 1804.46 1513.07 1814.65 1501.29 1803.67 1509.58 1793.44 1518.8 1782.58 1527.24 1766.79 1539.5 1752.33 1554.08 1733.66 1561.99 1726.31 1564.92 1717.86 1567.23 1710.14 1564.31 1704.38 1562.01 1700.95 1555.47 1702.46 1549.37 1693.99 1556.27 1683.94 1561.02 1673.6 1564.37 1667.67 1566.08 1661.07 1567.09 1655.17 1564.74 1650.33 1562.59 1648.02 1557.11 1648.05 1552.05 1647.62 1545.42 1650.21 1539.1 1653.67 1533.61 1661.93 1522.38 1674.24 1515.1 1686.35 1508.71 1692.14 1505.72 1698.27 1503.27 1704.68 1502.02 1708.55 1501.47 1713.35 1501.38 1716.15 1504.62 1719.03 1507.61 1718.08 1512.41 1716.09 1515.62 1711.99 1520.88 1706.56 1525.01 1700.49 1527.71 1691.2 1532.79 1680.9 1535.8 1670.43 1537.18 1666.21 1541.79 1661.43 1545.97 1658.19 1551.39 1656.27 1554.07 1657.39 1557.26 1659.95 1559 1664.97 1559.54 1669.95 1558.24 1674.61 1556.49 1695.62 1548.56 1712.65 1533.36 1729.8 1519.34 1743.78 1507.64 1757.94 1496.15 1771.74 1484.23 1772.95 1485.95 1774.11 1487.68 1775.24 1489.45 1772.34 1492 1769.34 1494.52 1767 1497.61 1764.37 1501.45 1765.78 1506.29 1766.26 1510.55 1767.35 1518.99 1768.98 1528.3 1764.35 1536.02 1765.95 1534.21 1767.4 1532.23 1769.24 1530.63 1780.57 1522.13 1791.56 1513.17 1802.79 1504.52 1806.09 1501.9 1808.52 1498.38 1811.8 1495.76 1816.43 1491.96 1821.26 1488.39 1826.53 1485.54 1831.75 1483 1834.96 1477.92 1839.45 1474.41 1859.9 1454.68 1879.38 1433.85 1901.29 1415.7 1909.31 1409.33 1917.41 1402.86 1926.66 1398.34M1931.59 1404.32C1920.14 1411.03 1910.71 1420.53 1901.11 1429.57 1895.64 1434.4 1890.66 1439.75 1885.51 1444.91 1879.68 1451.7 1872.98 1457.69 1867.32 1464.62 1863.91 1468.47 1860.05 1471.89 1856.81 1475.89 1868.27 1469.09 1879.93 1462.63 1891.15 1455.45 1908.65 1444.61 1926.22 1433.06 1939.47 1417.03 1941.69 1413.92 1943.87 1410.43 1943.76 1406.46 1943.45 1404.87 1942.05 1403.86 1941.17 1402.62 1937.89 1402.12 1934.43 1402.52 1931.59 1404.32M1745.07 1512.56C1734.29 1522.04 1723.49 1531.47 1713.02 1541.29 1717.8 1541.11 1721.65 1546.36 1720.1 1550.88 1719.16 1554.95 1715.26 1557.42 1711.36 1558.05 1714.68 1558.16 1718.1 1558.68 1721.34 1557.66 1728 1555.83 1733.04 1550.77 1737.74 1545.99 1746.67 1537.16 1753.41 1525.89 1755.86 1513.49 1756.73 1509.01 1756.5 1504.23 1758.66 1500.09 1754.53 1504.67 1749.48 1508.27 1745.07 1512.56M2013.28 1518.18C2006.57 1523.01 2000.57 1528.72 1994.58 1534.39 1990.55 1537.64 1987.45 1541.82 1983.91 1545.57 1981.2 1549.17 1977.81 1553.13 1978.21 1557.95 1980.77 1559.03 1983.56 1558.69 1986.04 1557.56 1999.49 1551.74 2010.73 1542.05 2021.69 1532.54 2027.97 1526.59 2035.79 1520.92 2037.98 1512.08 2039.06 1509.48 2036.39 1507.86 2034.12 1508.18 2026.17 1508.78 2019.53 1513.68 2013.28 1518.18M1699.61 1512.86C1691.14 1518.44 1683.6 1525.44 1674.41 1529.92 1683.48 1527.11 1692.81 1524.39 1700.68 1518.9 1704.37 1516.19 1708.29 1513.32 1710.1 1508.94 1706.37 1509.46 1702.73 1510.71 1699.61 1512.86Z" fill="#FFFFFF" fill-rule="evenodd"/><path d="M1927.32 1479.06C1925.18 1471.42 1934.14 1463.4 1941.46 1466.81 1945.14 1469.02 1947.23 1474.27 1945.22 1478.29 1942.81 1483.25 1936.84 1486.18 1931.47 1484.54 1929.9 1482.9 1927.87 1481.39 1927.32 1479.06Z" fill="#FFFFFF" fill-rule="evenodd"/><path d="M1446 1577C1462.54 1537.87 1451.64 1427.3 1468.65 1406.87 1485.66 1386.44 1522.69 1453.43 1548.05 1454.42 1573.41 1455.41 1607.59 1396.97 1620.83 1412.82 1634.06 1428.66 1652.81 1433.62 1627.44 1549.51" fill="#FFFFFF" fill-rule="evenodd"/><path d="M0 32.5C-4.13768e-15 14.5507 14.5507-4.13768e-15 32.5-8.27536e-15 50.4492-1.65507e-14 65 14.5507 65 32.5 65 50.4492 50.4492 65 32.5 65 14.5507 65-2.06884e-14 50.4492 0 32.5Z" fill="#FFFFFF" fill-rule="evenodd" transform="matrix(1 0 0 -1 1420 1587)"/><path d="M0 32.5C-4.13768e-15 14.5507 14.5507-4.13768e-15 32.5-8.27536e-15 50.4492-1.65507e-14 65 14.5507 65 32.5 65 50.4492 50.4492 65 32.5 65 14.5507 65-2.06884e-14 50.4492 0 32.5Z" fill="#FFFFFF" fill-rule="evenodd" transform="matrix(1 0 0 -1 1588 1580)"/></g></svg>